<?xml version="1.0" encoding="UTF-8"?><svg id="a" xmlns="http://www.w3.org/2000/svg" width="600.87" height="223.92" viewBox="0 0 600.87 223.92"><defs><style>.b{fill:#fff;stroke:#fff;stroke-miterlimit:10;stroke-width:2px;}</style></defs><path class="b" d="M.78,166.88c14.93-18.74,36.69-42.93,66.44-67.12C117.26,59.06,167.3,36.75,203.52,24.42,282.16-2.36,347.5,.44,380.23,1.81c35.84,1.5,69.36,7,85.59,9.97,15.58,2.85,3.93,1.3,59.09,13.94,25.03,5.74,44.92,9.54,61.69,24.11,8.05,6.99,12.18,13.65,13.09,20.93,.96,7.72-1.97,14.11-4.58,19.01-13.78,25.92-33.85,41.29-33.85,41.29-32.95,25.25-64.35,39.85-69.38,42.16-36.47,16.72-61.3,28.1-98.73,37.36-31.91,7.89-77.31,18.62-132.1,7.66h0c-73.73-7.76-126.88-42.71-152.74-63.01C56.28,114.39,28.62,63.69,14.48,31.27"/></svg>